
#### ##       ##       ##     ##  ######  ####  #######  ##    ## 
 ##  ##       ##       ##     ## ##    ##  ##  ##     ## ###   ## 
 ##  ##       ##       ##     ## ##        ##  ##     ## ####  ## 
 ##  ##       ##       ##     ##  ######   ##  ##     ## ## ## ## 
 ##  ##       ##       ##     ##       ##  ##  ##     ## ##  #### 
 ##  ##       ##       ##     ## ##    ##  ##  ##     ## ##   ### 
#### ######## ########  #######   ######  ####  #######  ##    ## 


Movie Info
Plot: A man discovers that his best friend's wife is having an affair.
IMDB: http://www.imdb.com/title/tt1578275/
IMDB Rating: 4.9
Trailer:



General Info
Size: 1.38GB
Format: AVI
Runtime: 1:42:50



Sources
Video - The Dilemma 2011 TS XViD - IMAGiNE
Audio - The Dilemma 2011 TS XViD - IMAGiNE
(THANKS)



Video Info
ID : 0
Format : MPEG-4 Visual
Format profile : Advanced Simple@L5
Format settings, BVOP : Yes
Format settings, QPel : No
Format settings, GMC : No warppoints
Format settings, Matrix : Default (H.263)
Muxing mode : Packed bitstream
Codec ID : XVID
Codec ID/Hint : XviD
Duration : 1h 42mn
Bit rate : 1 662 Kbps
Width : 688 pixels
Height : 384 pixels
Display aspect ratio : 16:9
Frame rate : 25.000 fps
Color space : YUV
Chroma subsampling : 4:2:0
Bit depth : 8 bits
Scan type : Progressive
Compression mode : Lossy
Bits/(Pixel*Frame) : 0.252
Stream size : 1.19 GiB (86%)
Writing library : XviD 1.0.3 (UTC 2004-12-20)



Audio Info
ID : 1
Format : AC-3
Format/Info : Audio Coding 3
Mode extension : CM (complete main)
Codec ID : 2000
Duration : 1h 42mn
Bit rate mode : Constant
Bit rate : 256 Kbps
Channel(s) : 2 channels
Channel positions : Front: L R
Sampling rate : 48.0 KHz
Bit depth : 16 bits
Compression mode : Lossy
Stream size : 188 MiB (13%)
Alignment : Aligned on interleaves
Interleave, duration : 40 ms (1.00 video frame)
Interleave, preload duration : 512 ms




Encoders Notes
I dropped the source into vdubmod.
I lowered the brightness, increased the contrast & gamma.
Then i spent a while changing the colors with a rgb eq.
Finaly i sharpened it.
Its not a bad TS.
The colours were prety bad, i tried my best but in parts
it was to yellow & in other parts it was to purple.
Its dark in places but that was the only way to remove the yellow-ish tint.
Here is a screen shot comparison beetween mine & the source. 
http://screenshotcomparison.com/comparison/29094
The audio is ok, a bit low in places, but all you have to do is turn the volume up.
Download the sample first, to check that your happy with the quality.
ENJOY....


I am looking for;
Cammers, Cams, Screeners (any type), Cam audio, Line audio,
Un-released R6's R5's R4's R2's R1's,
A 25GB+ FTP server, A Windows Server
& a syncer.
If you can provide any of these please
contact me at illusion@hushmail.me


Greetz & Respect:
ChattChitto RG, Kingdom RG, Hunter, iNK, DiNGiE, Recalled2Life,
Chaos, SERENiTY, Demedic, SAFCuk009, ELEKTRI4KA,
MotleyCrue, Feel-Free, every uploader & encoder out there 


Need a fast & cheap seedbox?
Read the SeedM8 text document




================================== 
http://thepiratebay.org/user/hiest
==================================




Screenz:
 
http://leetleech.org/images/24461849415828546136.jpg
 
http://leetleech.org/images/05729289473095904729.png
 
http://leetleech.org/images/94409786621333353519.png
 
http://leetleech.org/images/01854540113777617248.png


#### ##       ##       ##     ##  ######  ####  #######  ##    ## 
 ##  ##       ##       ##     ## ##    ##  ##  ##     ## ###   ## 
 ##  ##       ##       ##     ## ##        ##  ##     ## ####  ## 
 ##  ##       ##       ##     ##  ######   ##  ##     ## ## ## ## 
 ##  ##       ##       ##     ##       ##  ##  ##     ## ##  #### 
 ##  ##       ##       ##     ## ##    ##  ##  ##     ## ##   ### 
#### ######## ########  #######   ######  ####  #######  ##    ## 

